<?xml version="1.0" encoding="UTF-8"?>
<svg id="Capa_1" xmlns="http://www.w3.org/2000/svg" version="1.1" viewBox="0 0 1000 350" height="60">
  <!-- Generator: Adobe Illustrator 29.6.1, SVG Export Plug-In . SVG Version: 2.1.1 Build 9)  -->
  <g>
    <polyline points="212.6 98.9 188.7 57.4 113.1 57.4 75.4 122.8 113.1 188.3 188.7 188.3 212.6 146.8" fill="none" stroke="#fe5140" stroke-linecap="round" stroke-linejoin="round" stroke-width="10"/>
    <polyline points="222.8 253.7 270.4 253.7 308.2 188.3 270.4 122.8 194.9 122.8 175.3 156.7" fill="none" stroke="#20ae66" stroke-linecap="round" stroke-linejoin="round" stroke-width="10"/>
    <polyline points="83.4 185.9 59.6 227.2 97.4 292.6 173 292.6 210.7 227.2 200.4 209.3" fill="none" stroke="#4089c4" stroke-linecap="round" stroke-linejoin="round" stroke-width="10"/>
  </g>
  <g>
    <path d="M453.3,163.9h-19.3c-5.2-9.9-14.5-14.8-26.2-14.8-19.5,0-33.6,13.8-33.6,35.4s14.1,35.5,33.6,35.5,28.9-10.7,31.3-27.2h-36.8v-12.8h54v12.6c-3,22.7-22.1,42-48.5,42s-50.1-20.6-50.1-50.1,22.4-50.1,50.1-50.1,38.1,10.3,45.6,29.5Z" fill="#383838"/>
    <path d="M488.1,233.7h-16.1v-77.7h16.1v11.3c4.5-7.8,12.3-12.6,23.3-12.6v16.6h-4.1c-11.8,0-19.2,4.9-19.2,21.4v40.9Z" fill="#383838"/>
    <path d="M557.5,154.7c13.1,0,22.1,6.2,26.9,12.6v-11.3h16.2v77.7h-16.2v-11.6c-4.9,6.6-14.2,12.8-27.2,12.8-20.2,0-36.4-16.5-36.4-40.5s16.2-39.8,36.7-39.8ZM560.9,168.7c-12,0-23.6,9-23.6,25.8s11.6,26.5,23.6,26.5,23.6-9.4,23.6-26.2-11.4-26.1-23.6-26.1Z" fill="#383838"/>
    <path d="M664.9,154.7c20.4,0,36.5,15.8,36.5,39.8s-16.1,40.5-36.5,40.5-22-6.5-27.1-12.6v48.2h-16.1v-114.7h16.1v11.4c4.9-6.5,14.4-12.7,27.1-12.7ZM661.4,168.7c-12,0-23.6,9.4-23.6,26.1s11.6,26.2,23.6,26.2,23.7-9.7,23.7-26.5-11.6-25.8-23.7-25.8Z" fill="#383838"/>
    <path d="M760.5,154.7c20.4,0,36.5,15.8,36.5,39.8s-16.1,40.5-36.5,40.5-22-6.5-27.1-12.6v48.2h-16.1v-114.7h16.1v11.4c4.9-6.5,14.4-12.7,27.1-12.7ZM757,168.7c-12,0-23.6,9.4-23.6,26.1s11.6,26.2,23.6,26.2,23.7-9.7,23.7-26.5-11.6-25.8-23.7-25.8Z" fill="#383838"/>
    <path d="M846.4,234.9c-22.3,0-38.8-15.8-38.8-40.2s15.8-40.1,38.8-40.1,37.8,15.4,37.8,38.2-.1,5.2-.6,7.9h-59.4c1.1,12.8,10.3,20.6,22.1,20.6s15.4-4.8,18.3-10.9h17.3c-4.4,13.5-16.6,24.4-35.7,24.4ZM824.4,187.8h43c-.3-12-9.7-19.6-21.7-19.6s-19.6,7.3-21.3,19.6Z" fill="#383838"/>
    <path d="M916.1,233.7h-16.1v-77.7h16.1v11.3c4.5-7.8,12.3-12.6,23.3-12.6v16.6h-4.1c-11.8,0-19.2,4.9-19.2,21.4v40.9Z" fill="#383838"/>
  </g>
  <g>
    <path d="M761.7,108.3c1.1-.7,2.5-1.1,4.1-1.1s2.9.4,4.1,1.1c1.2.7,2.1,1.7,2.8,3,.7,1.3,1,2.8,1,4.5s-.3,3.2-1,4.5c-.7,1.3-1.6,2.3-2.8,3-1.2.7-2.6,1.1-4.1,1.1s-3-.4-4.1-1.1-2-1.7-2.5-2.8v3.7h-2.1v-22.6h2.1v9.6c.5-1.2,1.4-2.1,2.5-2.8ZM770.8,112.2c-.5-1-1.3-1.8-2.2-2.3-.9-.5-2-.8-3.2-.8s-2.2.3-3.1.8c-.9.5-1.7,1.3-2.2,2.3s-.8,2.2-.8,3.5.3,2.5.8,3.5,1.3,1.8,2.2,2.3c.9.5,2,.8,3.1.8s2.2-.3,3.2-.8c.9-.5,1.7-1.3,2.2-2.3s.8-2.2.8-3.6-.3-2.6-.8-3.6Z" fill="#383838"/>
    <path d="M790.7,107.4l-9.9,24.5h-2.2l3.2-7.9-6.8-16.6h2.3l5.7,14.2,5.5-14.2h2.2Z" fill="#383838"/>
    <path d="M818.7,109c-.6-1.4-1.5-2.5-2.8-3.3-1.3-.8-2.7-1.2-4.4-1.2s-3,.4-4.3,1.1-2.3,1.8-3,3.1c-.7,1.4-1.1,2.9-1.1,4.7s.4,3.4,1.1,4.7c.7,1.4,1.7,2.4,3,3.1s2.7,1.1,4.3,1.1,2.8-.3,4-1c1.2-.6,2.1-1.6,2.9-2.7.7-1.2,1.1-2.6,1.2-4.2h-9v-1.7h11.2v1.6c-.1,1.9-.6,3.6-1.5,5.1s-2.1,2.7-3.7,3.6c-1.5.9-3.3,1.3-5.2,1.3s-3.8-.5-5.4-1.4c-1.6-.9-2.9-2.2-3.8-3.9-.9-1.7-1.4-3.5-1.4-5.6s.5-4,1.4-5.6c.9-1.7,2.2-2.9,3.8-3.9,1.6-.9,3.4-1.4,5.4-1.4s4.3.6,6,1.7c1.7,1.1,3,2.7,3.7,4.8h-2.5Z" fill="#383838"/>
    <path d="M830,108c1-.6,2.2-.9,3.6-.9v2.2h-.6c-1.5,0-2.8.4-3.7,1.3-.9.8-1.4,2.2-1.4,4.2v9.3h-2.1v-16.7h2.1v3c.5-1,1.2-1.8,2.2-2.4Z" fill="#383838"/>
    <path d="M836,111.2c.7-1.3,1.6-2.3,2.8-3,1.2-.7,2.6-1.1,4.1-1.1s3,.4,4.1,1.1,2,1.7,2.5,2.8v-3.7h2.1v16.7h-2.1v-3.7c-.5,1.1-1.4,2.1-2.5,2.8-1.2.7-2.5,1.1-4.1,1.1s-2.9-.4-4.1-1.1c-1.2-.7-2.2-1.7-2.8-3-.7-1.3-1-2.8-1-4.5s.3-3.2,1-4.5ZM848.7,112.2c-.5-1-1.3-1.8-2.2-2.3-.9-.5-2-.8-3.1-.8s-2.2.3-3.2.8c-.9.5-1.7,1.3-2.2,2.3-.5,1-.8,2.2-.8,3.6s.3,2.6.8,3.6,1.3,1.8,2.2,2.3c.9.5,2,.8,3.2.8s2.2-.3,3.1-.8c.9-.5,1.7-1.3,2.2-2.3s.8-2.2.8-3.5-.3-2.5-.8-3.5Z" fill="#383838"/>
    <path d="M861,108.3c1.1-.7,2.5-1.1,4.1-1.1s2.9.4,4.1,1.1c1.2.7,2.2,1.7,2.8,3,.7,1.3,1,2.8,1,4.5s-.3,3.2-1,4.5c-.7,1.3-1.6,2.3-2.8,3-1.2.7-2.6,1.1-4.1,1.1s-2.9-.4-4.1-1.1c-1.2-.7-2-1.7-2.5-2.8v11.5h-2.1v-24.5h2.1v3.7c.5-1.1,1.4-2,2.5-2.8ZM870,112.2c-.5-1-1.3-1.8-2.2-2.3-.9-.5-2-.8-3.2-.8s-2.2.3-3.1.8c-.9.5-1.7,1.3-2.2,2.3s-.8,2.2-.8,3.5.3,2.5.8,3.5,1.3,1.8,2.2,2.3c.9.5,2,.8,3.1.8s2.2-.3,3.2-.8c.9-.5,1.7-1.3,2.2-2.3s.8-2.2.8-3.6-.3-2.6-.8-3.6Z" fill="#383838"/>
    <path d="M888.1,107.9c1,.5,1.8,1.3,2.4,2.4.6,1.1.9,2.4.9,4v9.8h-2.1v-9.5c0-1.8-.5-3.2-1.4-4.2-.9-1-2.1-1.4-3.7-1.4s-2.9.5-3.8,1.5-1.4,2.5-1.4,4.5v9.1h-2.1v-22.6h2.1v8.8c.5-1,1.3-1.8,2.3-2.3,1-.5,2.2-.8,3.5-.8s2.4.3,3.4.8Z" fill="#383838"/>
    <path d="M911,116.6h-13.8c0,1.3.4,2.3.9,3.2.5.9,1.3,1.6,2.2,2,.9.5,1.9.7,2.9.7s2.5-.3,3.5-1c.9-.7,1.6-1.6,1.9-2.7h2.3c-.4,1.6-1.3,3-2.6,4-1.3,1-3,1.5-5,1.5s-3-.4-4.2-1.1c-1.2-.7-2.2-1.7-2.9-3s-1.1-2.8-1.1-4.5.3-3.2,1-4.5c.7-1.3,1.7-2.3,2.9-3s2.7-1,4.2-1,3,.3,4.2,1c1.2.7,2.1,1.6,2.7,2.8.6,1.2,1,2.5,1,3.9s0,1.3,0,1.7ZM908.1,111.7c-.5-.9-1.2-1.5-2.1-2-.9-.4-1.9-.7-2.9-.7-1.6,0-2.9.5-4.1,1.5-1.1,1-1.7,2.5-1.9,4.3h11.7c0-1.2-.2-2.3-.7-3.2Z" fill="#383838"/>
    <path d="M919.1,108c1-.6,2.2-.9,3.6-.9v2.2h-.6c-1.5,0-2.8.4-3.7,1.3-.9.8-1.4,2.2-1.4,4.2v9.3h-2.1v-16.7h2.1v3c.5-1,1.2-1.8,2.2-2.4Z" fill="#383838"/>
    <path d="M940.4,107.4l-9.9,24.5h-2.2l3.2-7.9-6.8-16.6h2.3l5.7,14.2,5.5-14.2h2.2Z" fill="#383838"/>
  </g>
</svg>